<svg version="1.1" id="Layer_1" xmlns="http://www.w3.org/2000/svg" xmlns:xlink="http://www.w3.org/1999/xlink" x="0px" y="0px" viewBox="0 0 193.9 83" style="enable-background:new 0 0 193.9 83;" xml:space="preserve">
<style type="text/css">
	.st00{fill:#444444;}
	.st1{clip-path:url(#SVGID_00000180340168513700251320000014351674105052747137_);}
	.st2{fill:#EC4137;}
	.st3{fill:#4388F0;}
	.st4{fill:#34A855;}
</style>
<path class="st00" d="M5.9,65.3h1.6L12.9,78h-2l-1.3-3.2H3.6L2.3,78h-2L5.9,65.3z M9,73.3l-2.4-5.8h0l-2.4,5.8H9z M20,75.3
	c0.3,0.5,0.7,0.8,1.2,1c0.5,0.2,1,0.3,1.5,0.3c0.3,0,0.6,0,0.9-0.1c0.3-0.1,0.6-0.2,0.8-0.4c0.3-0.2,0.5-0.4,0.6-0.7
	c0.2-0.3,0.2-0.6,0.2-0.9c0-0.5-0.2-0.9-0.5-1.1c-0.3-0.3-0.7-0.5-1.2-0.6c-0.5-0.2-1-0.3-1.5-0.5c-0.5-0.2-1-0.4-1.5-0.7
	c-0.5-0.3-0.8-0.7-1.2-1.2c-0.3-0.5-0.5-1.2-0.5-2c0-0.4,0.1-0.8,0.2-1.2c0.2-0.4,0.4-0.8,0.8-1.2c0.3-0.3,0.8-0.6,1.3-0.9
	c0.6-0.2,1.2-0.4,2-0.4c0.7,0,1.4,0.1,2,0.3c0.6,0.2,1.2,0.6,1.7,1.2l-1.4,1.3c-0.2-0.3-0.5-0.6-0.9-0.8c-0.4-0.2-0.8-0.3-1.4-0.3
	c-0.5,0-0.9,0.1-1.2,0.2c-0.3,0.1-0.6,0.3-0.8,0.5c-0.2,0.2-0.3,0.4-0.4,0.6c-0.1,0.2-0.1,0.4-0.1,0.6c0,0.5,0.2,1,0.5,1.2
	s0.7,0.5,1.2,0.7c0.5,0.2,1,0.3,1.5,0.5c0.6,0.1,1.1,0.3,1.5,0.6c0.5,0.3,0.9,0.6,1.2,1c0.3,0.4,0.5,1,0.5,1.8
	c0,0.6-0.1,1.2-0.4,1.7c-0.2,0.5-0.5,0.9-0.9,1.2s-0.9,0.6-1.4,0.8s-1.1,0.3-1.7,0.3c-0.8,0-1.6-0.1-2.3-0.4s-1.3-0.7-1.7-1.3
	L20,75.3z M33.8,70.9h-2.3v3.9c0,0.2,0,0.5,0,0.7c0,0.2,0.1,0.4,0.1,0.6c0.1,0.2,0.2,0.3,0.4,0.4c0.2,0.1,0.4,0.2,0.7,0.2
	c0.2,0,0.4,0,0.6-0.1c0.2,0,0.4-0.1,0.6-0.2v1.5c-0.2,0.1-0.4,0.2-0.8,0.2c-0.3,0-0.5,0.1-0.7,0.1c-0.6,0-1.1-0.1-1.5-0.3
	c-0.3-0.2-0.6-0.4-0.8-0.7c-0.2-0.3-0.3-0.6-0.3-0.9c0-0.3,0-0.7,0-1v-4.4H28v-1.4h1.9v-2.4h1.6v2.4h2.3V70.9z M43.4,78h-1.6v-1.3h0
	c-0.2,0.5-0.6,0.8-1.1,1.1c-0.5,0.3-1.1,0.4-1.7,0.4c-0.4,0-0.8-0.1-1.2-0.2c-0.4-0.1-0.7-0.3-1-0.6c-0.3-0.3-0.5-0.6-0.7-1
	c-0.2-0.4-0.3-0.9-0.3-1.5v-5.5h1.6v5c0,0.4,0.1,0.7,0.2,1c0.1,0.3,0.3,0.5,0.4,0.7c0.2,0.2,0.4,0.3,0.6,0.4
	c0.2,0.1,0.5,0.1,0.7,0.1c0.3,0,0.6-0.1,0.9-0.2c0.3-0.1,0.5-0.3,0.8-0.5c0.2-0.2,0.4-0.5,0.5-0.9s0.2-0.8,0.2-1.3v-4.4h1.6V78z
	 M54.4,78h-1.6v-1.2h0c-0.3,0.5-0.7,0.8-1.3,1.1c-0.5,0.3-1.1,0.4-1.7,0.4c-0.7,0-1.3-0.1-1.8-0.3c-0.5-0.2-1-0.5-1.4-1
	c-0.4-0.4-0.7-0.9-0.9-1.4c-0.2-0.5-0.3-1.1-0.3-1.8s0.1-1.2,0.3-1.8c0.2-0.6,0.5-1,0.9-1.4c0.4-0.4,0.8-0.7,1.4-1
	c0.5-0.2,1.1-0.3,1.8-0.3c0.6,0,1.2,0.1,1.7,0.4c0.5,0.3,1,0.6,1.2,1h0v-6.3h1.6V78z M50,76.7c0.4,0,0.8-0.1,1.2-0.2
	c0.3-0.2,0.6-0.4,0.9-0.6c0.2-0.3,0.4-0.6,0.6-0.9c0.1-0.4,0.2-0.8,0.2-1.2s-0.1-0.8-0.2-1.2c-0.1-0.4-0.3-0.7-0.6-0.9
	c-0.2-0.3-0.5-0.5-0.9-0.6c-0.3-0.2-0.7-0.2-1.2-0.2c-0.4,0-0.8,0.1-1.2,0.2c-0.3,0.1-0.6,0.3-0.9,0.6c-0.2,0.3-0.4,0.6-0.6,0.9
	c-0.1,0.4-0.2,0.8-0.2,1.2s0.1,0.8,0.2,1.2c0.1,0.4,0.3,0.7,0.6,0.9c0.2,0.3,0.5,0.5,0.9,0.6C49.2,76.6,49.6,76.7,50,76.7z M57,69.5
	h1.6V78H57V69.5z M56.6,66.4c0-0.3,0.1-0.6,0.3-0.8c0.2-0.2,0.5-0.4,0.8-0.4s0.6,0.1,0.8,0.4c0.2,0.2,0.4,0.5,0.4,0.8
	c0,0.3-0.1,0.6-0.4,0.8c-0.2,0.2-0.5,0.3-0.8,0.3s-0.6-0.1-0.8-0.3C56.7,67,56.6,66.7,56.6,66.4z M62.5,73.7c0,0.4,0.1,0.8,0.2,1.2
	c0.1,0.4,0.3,0.7,0.6,0.9c0.2,0.3,0.5,0.5,0.9,0.6c0.3,0.1,0.7,0.2,1.2,0.2s0.8-0.1,1.2-0.2c0.3-0.2,0.6-0.4,0.9-0.6
	c0.2-0.3,0.4-0.6,0.6-0.9c0.1-0.4,0.2-0.8,0.2-1.2s-0.1-0.8-0.2-1.2c-0.1-0.4-0.3-0.7-0.6-0.9c-0.2-0.3-0.5-0.5-0.9-0.6
	c-0.3-0.2-0.7-0.2-1.2-0.2s-0.8,0.1-1.2,0.2c-0.3,0.1-0.6,0.3-0.9,0.6c-0.2,0.3-0.4,0.6-0.6,0.9C62.6,72.9,62.5,73.3,62.5,73.7z
	 M60.8,73.7c0-0.6,0.1-1.2,0.3-1.7c0.2-0.5,0.6-1,1-1.4c0.4-0.4,0.9-0.7,1.4-1c0.6-0.2,1.1-0.4,1.8-0.4s1.2,0.1,1.8,0.4
	c0.6,0.2,1,0.5,1.4,1c0.4,0.4,0.7,0.9,1,1.4c0.2,0.5,0.4,1.1,0.4,1.7s-0.1,1.2-0.4,1.8c-0.2,0.5-0.5,1-1,1.4c-0.4,0.4-0.9,0.7-1.4,1
	c-0.6,0.2-1.1,0.3-1.8,0.3s-1.2-0.1-1.8-0.3c-0.6-0.2-1-0.6-1.4-1c-0.4-0.4-0.7-0.9-1-1.4C60.9,74.9,60.8,74.4,60.8,73.7z M86.2,68
	c-0.4-0.5-0.8-0.8-1.4-1.1s-1.1-0.4-1.7-0.4c-0.7,0-1.4,0.1-2,0.4c-0.6,0.3-1.1,0.6-1.5,1.1c-0.4,0.5-0.7,1-1,1.7
	c-0.2,0.6-0.3,1.3-0.3,2c0,0.7,0.1,1.3,0.3,1.9c0.2,0.6,0.5,1.1,0.9,1.6c0.4,0.5,0.9,0.8,1.5,1.1s1.3,0.4,2,0.4
	c0.7,0,1.4-0.2,1.9-0.5c0.6-0.3,1-0.7,1.4-1.3l1.5,1.1c-0.1,0.1-0.3,0.3-0.5,0.6c-0.2,0.2-0.6,0.5-1,0.7C86,77.6,85.6,77.9,85,78
	c-0.6,0.2-1.2,0.3-1.9,0.3c-1,0-1.9-0.2-2.7-0.6c-0.8-0.4-1.5-0.9-2.1-1.5c-0.6-0.6-1-1.3-1.3-2.1c-0.3-0.8-0.5-1.6-0.5-2.4
	c0-1,0.2-1.9,0.5-2.7c0.3-0.8,0.8-1.6,1.4-2.2c0.6-0.6,1.3-1.1,2.1-1.4c0.8-0.3,1.7-0.5,2.7-0.5c0.8,0,1.7,0.2,2.5,0.5
	c0.8,0.3,1.5,0.8,2,1.5L86.2,68z M89.7,69.5h1.6V78h-1.6V69.5z M89.3,66.4c0-0.3,0.1-0.6,0.3-0.8c0.2-0.2,0.5-0.4,0.8-0.4
	c0.3,0,0.6,0.1,0.8,0.4c0.2,0.2,0.4,0.5,0.4,0.8c0,0.3-0.1,0.6-0.4,0.8c-0.2,0.2-0.5,0.3-0.8,0.3c-0.3,0-0.6-0.1-0.8-0.3
	C89.4,67,89.3,66.7,89.3,66.4z M98.5,70.9h-2.3v3.9c0,0.2,0,0.5,0,0.7c0,0.2,0.1,0.4,0.1,0.6c0.1,0.2,0.2,0.3,0.4,0.4
	c0.2,0.1,0.4,0.2,0.7,0.2c0.2,0,0.4,0,0.6-0.1c0.2,0,0.4-0.1,0.6-0.2v1.5c-0.2,0.1-0.4,0.2-0.8,0.2c-0.3,0-0.5,0.1-0.7,0.1
	c-0.6,0-1.1-0.1-1.5-0.3c-0.3-0.2-0.6-0.4-0.8-0.7c-0.2-0.3-0.3-0.6-0.3-0.9c0-0.3,0-0.7,0-1v-4.4h-1.9v-1.4h1.9v-2.4h1.6v2.4h2.3
	V70.9z M99.5,69.5h1.9l2.5,6.7h0l2.4-6.7h1.7l-4.1,10.4c-0.1,0.4-0.3,0.7-0.4,1c-0.2,0.3-0.3,0.6-0.6,0.8c-0.2,0.2-0.5,0.4-0.8,0.5
	c-0.3,0.1-0.7,0.2-1.1,0.2c-0.2,0-0.5,0-0.7-0.1c-0.2,0-0.5-0.1-0.7-0.2l0.2-1.5c0.3,0.1,0.6,0.2,1,0.2c0.3,0,0.5,0,0.6-0.1
	c0.2-0.1,0.3-0.2,0.5-0.3c0.1-0.1,0.2-0.3,0.3-0.4c0.1-0.2,0.2-0.4,0.3-0.6l0.5-1.3L99.5,69.5z M123.8,68c-0.4-0.5-0.8-0.8-1.4-1.1
	s-1.1-0.4-1.7-0.4c-0.7,0-1.4,0.1-2,0.4c-0.6,0.3-1.1,0.6-1.5,1.1c-0.4,0.5-0.7,1-1,1.7c-0.2,0.6-0.3,1.3-0.3,2
	c0,0.7,0.1,1.3,0.3,1.9c0.2,0.6,0.5,1.1,0.9,1.6c0.4,0.5,0.9,0.8,1.5,1.1c0.6,0.3,1.3,0.4,2,0.4c0.7,0,1.4-0.2,1.9-0.5
	c0.6-0.3,1-0.7,1.4-1.3l1.5,1.1c-0.1,0.1-0.3,0.3-0.5,0.6c-0.2,0.2-0.6,0.5-1,0.7c-0.4,0.2-0.9,0.5-1.4,0.6
	c-0.6,0.2-1.2,0.3-1.9,0.3c-1,0-1.9-0.2-2.7-0.6c-0.8-0.4-1.5-0.9-2.1-1.5c-0.6-0.6-1-1.3-1.3-2.1c-0.3-0.8-0.4-1.6-0.4-2.4
	c0-1,0.2-1.9,0.5-2.7c0.3-0.8,0.8-1.6,1.3-2.2c0.6-0.6,1.3-1.1,2.1-1.4c0.8-0.3,1.7-0.5,2.7-0.5c0.8,0,1.7,0.2,2.5,0.5
	c0.8,0.3,1.5,0.8,2,1.5L123.8,68z M128.5,73.7c0,0.4,0.1,0.8,0.2,1.2c0.1,0.4,0.3,0.7,0.6,0.9c0.2,0.3,0.5,0.5,0.9,0.6
	c0.3,0.1,0.7,0.2,1.2,0.2c0.4,0,0.8-0.1,1.2-0.2c0.3-0.2,0.6-0.4,0.9-0.6c0.2-0.3,0.4-0.6,0.6-0.9c0.1-0.4,0.2-0.8,0.2-1.2
	s-0.1-0.8-0.2-1.2c-0.1-0.4-0.3-0.7-0.6-0.9c-0.2-0.3-0.5-0.5-0.9-0.6c-0.3-0.2-0.7-0.2-1.2-0.2c-0.4,0-0.8,0.1-1.2,0.2
	c-0.3,0.1-0.6,0.3-0.9,0.6c-0.2,0.3-0.4,0.6-0.6,0.9C128.6,72.9,128.5,73.3,128.5,73.7z M126.8,73.7c0-0.6,0.1-1.2,0.3-1.7
	c0.2-0.5,0.6-1,1-1.4c0.4-0.4,0.9-0.7,1.4-1c0.6-0.2,1.1-0.4,1.8-0.4s1.2,0.1,1.8,0.4c0.6,0.2,1,0.5,1.4,1c0.4,0.4,0.7,0.9,1,1.4
	c0.2,0.5,0.4,1.1,0.4,1.7s-0.1,1.2-0.4,1.8c-0.2,0.5-0.5,1-1,1.4c-0.4,0.4-0.9,0.7-1.4,1c-0.6,0.2-1.1,0.3-1.8,0.3s-1.2-0.1-1.8-0.3
	c-0.6-0.2-1-0.6-1.4-1c-0.4-0.4-0.7-0.9-1-1.4C126.9,74.9,126.8,74.4,126.8,73.7z M137.9,69.5h1.5v1.3h0c0-0.1,0.1-0.3,0.3-0.5
	c0.2-0.2,0.3-0.3,0.6-0.5c0.2-0.2,0.5-0.3,0.8-0.4c0.3-0.1,0.7-0.2,1.1-0.2c0.6,0,1.2,0.1,1.6,0.4c0.4,0.3,0.8,0.7,1.1,1.2
	c0.3-0.5,0.7-0.9,1.2-1.2s1-0.4,1.5-0.4c0.7,0,1.2,0.1,1.6,0.3c0.4,0.2,0.8,0.5,1,0.9c0.2,0.3,0.4,0.8,0.5,1.2
	c0.1,0.4,0.1,0.9,0.1,1.4v5h-1.6v-4.8c0-0.3,0-0.6-0.1-0.9c0-0.3-0.1-0.6-0.3-0.8c-0.1-0.2-0.3-0.4-0.6-0.5c-0.2-0.1-0.6-0.2-1-0.2
	c-0.8,0-1.3,0.2-1.7,0.7c-0.3,0.5-0.5,1.1-0.5,1.9V78h-1.6v-4.5c0-0.4,0-0.8-0.1-1.1c0-0.3-0.1-0.6-0.3-0.9
	c-0.1-0.3-0.3-0.4-0.5-0.6c-0.2-0.1-0.5-0.2-0.9-0.2c-0.3,0-0.6,0.1-0.8,0.2c-0.3,0.1-0.5,0.3-0.7,0.5c-0.2,0.2-0.4,0.5-0.5,0.9
	c-0.1,0.3-0.2,0.8-0.2,1.2V78h-1.6V69.5z M153.2,69.5h1.6v1.2h0c0.3-0.5,0.7-0.8,1.3-1.1c0.6-0.3,1.1-0.4,1.7-0.4
	c0.7,0,1.3,0.1,1.8,0.3c0.5,0.2,1,0.5,1.4,1c0.4,0.4,0.7,0.9,0.9,1.4c0.2,0.5,0.3,1.1,0.3,1.7c0,0.6-0.1,1.2-0.3,1.8
	c-0.2,0.5-0.5,1-0.9,1.4c-0.4,0.4-0.8,0.7-1.4,0.9c-0.5,0.2-1.1,0.3-1.8,0.3c-0.6,0-1.2-0.1-1.7-0.4c-0.5-0.3-1-0.6-1.2-1.1h0v6.3
	h-1.6V69.5z M157.7,70.8c-0.4,0-0.8,0.1-1.2,0.2c-0.3,0.1-0.6,0.3-0.9,0.6c-0.2,0.3-0.4,0.6-0.6,0.9c-0.1,0.4-0.2,0.8-0.2,1.2
	s0.1,0.8,0.2,1.2c0.1,0.4,0.3,0.7,0.6,0.9c0.2,0.3,0.5,0.5,0.9,0.6c0.3,0.1,0.7,0.2,1.2,0.2c0.4,0,0.8-0.1,1.2-0.2
	c0.3-0.2,0.6-0.4,0.9-0.6c0.2-0.3,0.4-0.6,0.6-0.9c0.1-0.4,0.2-0.8,0.2-1.2s-0.1-0.8-0.2-1.2c-0.1-0.4-0.3-0.7-0.6-0.9
	c-0.2-0.3-0.5-0.5-0.9-0.6C158.5,70.8,158.1,70.8,157.7,70.8z M164.3,70.5c0.5-0.4,1-0.7,1.6-0.9c0.6-0.2,1.2-0.3,1.8-0.3
	c0.6,0,1.2,0.1,1.6,0.2c0.5,0.2,0.8,0.4,1.1,0.6c0.3,0.3,0.5,0.6,0.6,0.9c0.1,0.3,0.2,0.7,0.2,1.1v4.4c0,0.3,0,0.6,0,0.8
	c0,0.3,0,0.5,0.1,0.7h-1.4c0-0.4-0.1-0.9-0.1-1.3h0c-0.4,0.6-0.8,0.9-1.3,1.2c-0.5,0.2-1.1,0.3-1.7,0.3c-0.4,0-0.8-0.1-1.1-0.2
	s-0.7-0.3-1-0.5c-0.3-0.2-0.5-0.5-0.6-0.8c-0.2-0.3-0.2-0.7-0.2-1.1c0-0.6,0.1-1,0.4-1.4c0.3-0.4,0.6-0.7,1-0.9
	c0.4-0.2,0.9-0.4,1.5-0.5c0.6-0.1,1.2-0.2,1.8-0.2h1.2v-0.4c0-0.2,0-0.4-0.1-0.6c-0.1-0.2-0.2-0.4-0.4-0.6c-0.2-0.2-0.4-0.3-0.6-0.4
	c-0.3-0.1-0.6-0.2-0.9-0.2c-0.3,0-0.6,0-0.8,0.1c-0.2,0.1-0.4,0.1-0.6,0.2c-0.2,0.1-0.4,0.2-0.5,0.3c-0.2,0.1-0.3,0.2-0.4,0.3
	L164.3,70.5z M168.9,73.9c-0.4,0-0.8,0-1.2,0.1c-0.4,0-0.8,0.1-1.1,0.2c-0.3,0.1-0.6,0.3-0.8,0.5c-0.2,0.2-0.3,0.5-0.3,0.8
	c0,0.5,0.2,0.8,0.5,1.1c0.3,0.2,0.8,0.3,1.4,0.3c0.4,0,0.8-0.1,1.1-0.2c0.3-0.2,0.6-0.4,0.8-0.6s0.3-0.5,0.4-0.8
	c0.1-0.3,0.1-0.6,0.1-0.9v-0.5H168.9z M173.6,69.5h1.6v1.3h0c0.2-0.5,0.6-0.8,1.1-1.1c0.5-0.3,1.1-0.4,1.7-0.4
	c0.4,0,0.8,0.1,1.2,0.2c0.4,0.1,0.7,0.3,1,0.6c0.3,0.3,0.5,0.6,0.7,1c0.2,0.4,0.3,0.9,0.3,1.5V78h-1.6v-5c0-0.4-0.1-0.7-0.2-1
	c-0.1-0.3-0.3-0.5-0.4-0.7c-0.2-0.2-0.4-0.3-0.6-0.4c-0.2-0.1-0.5-0.1-0.7-0.1c-0.3,0-0.6,0.1-0.9,0.2c-0.3,0.1-0.5,0.3-0.8,0.5
	c-0.2,0.2-0.4,0.5-0.5,0.9c-0.1,0.4-0.2,0.8-0.2,1.3V78h-1.6V69.5z M182.6,69.5h1.9l2.5,6.7h0l2.4-6.7h1.7l-4,10.4
	c-0.1,0.4-0.3,0.7-0.5,1c-0.2,0.3-0.3,0.6-0.6,0.8c-0.2,0.2-0.5,0.4-0.8,0.5c-0.3,0.1-0.7,0.2-1.1,0.2c-0.2,0-0.5,0-0.7-0.1
	c-0.2,0-0.5-0.1-0.7-0.2l0.2-1.5c0.3,0.1,0.6,0.2,1,0.2c0.3,0,0.5,0,0.6-0.1c0.2-0.1,0.3-0.2,0.4-0.3c0.1-0.1,0.2-0.3,0.3-0.4
	c0.1-0.2,0.2-0.4,0.3-0.6l0.5-1.3L182.6,69.5z"></path>
<g>
	<defs>
		<rect id="SVGID_1_" x="0.8" y="1" width="191" height="49"></rect>
	</defs>
	<clipPath id="SVGID_00000145754312127290082250000003669340540988187287_">
		<use xlink:href="#SVGID_1_" style="overflow:visible;"></use>
	</clipPath>
	<g style="clip-path:url(#SVGID_00000145754312127290082250000003669340540988187287_);">
		<path d="M190.7,43h-33.8V2.2c0-0.6-0.5-1.2-1.2-1.2h-4.9c-0.6,0-1.2,0.5-1.2,1.2v46.7c0,0.6,0.5,1.2,1.2,1.2h39.8
			c0.6,0,1.2-0.5,1.2-1.2v-4.7C191.8,43.5,191.3,43,190.7,43z"></path>
		<path d="M39,5.3C36.1,2.5,32.1,1,27.8,1H2.5C1.6,1,0.8,1.8,0.8,2.7v45.6c0,0.9,0.8,1.7,1.7,1.7h3.9c0.9,0,1.7-0.8,1.7-1.7V32.5
			h19.1c4.4,0,8.5-1.7,11.6-4.8c3-3.1,4.7-7.1,4.7-11.4C43.4,12,41.8,8.1,39,5.3z M33.5,22.8c-1.5,1.6-3.5,2.4-5.6,2.4H8V8.3h19.8
			c2.2,0,4.3,0.8,5.8,2.4c1.6,1.5,2.4,3.6,2.4,5.8C36.1,18.8,35.2,21.1,33.5,22.8z"></path>
		<path d="M89.5,25.5L70.6,44.4c-0.7,0.6-0.7,1.7,0,2.4l2.7,2.7c0.3,0.3,0.7,0.5,1.2,0.5c0.4,0,0.9-0.2,1.2-0.5l18.9-18.9L89.5,25.5
			z"></path>
		<path class="st2" d="M75.7,1.6c-0.3-0.3-0.7-0.5-1.2-0.5c-0.4,0-0.9,0.2-1.2,0.5l-2.7,2.7c-0.7,0.6-0.7,1.7,0,2.4l18.9,18.9
			l5.1-5.1L75.7,1.6z"></path>
		<path class="st3" d="M118.5,44.4L99.6,25.5l-5.1,5.1l18.9,18.9c0.3,0.3,0.8,0.5,1.2,0.5s0.9-0.2,1.2-0.5l2.7-2.7
			c0.3-0.3,0.5-0.7,0.5-1.2C118.9,45.1,118.8,44.7,118.5,44.4z"></path>
		<path class="st4" d="M118.5,4.3l-2.7-2.7c-0.7-0.7-1.7-0.7-2.4,0L94.5,20.5l5.1,5.1l18.9-18.9C119.1,6,119.1,4.9,118.5,4.3z"></path>
	</g>
</g>
</svg>