<svg class="pxl-logo-white site-footer__logo" version="1.1" id="Layer_1" xmlns="http://www.w3.org/2000/svg" xmlns:xlink="http://www.w3.org/1999/xlink" x="0px" y="0px" viewBox="0 0 192.8 78" style="enable-background:new 0 0 192.8 78;" xml:space="preserve">
<style type="text/css">
	.st0{fill:#b7b7b7;}
	.st1{clip-path:url(#SVGID_00000072240392339698576630000007123821101404469179_);}
	.is-white{fill:#FFFFFF;}
</style>
<path class="st0" d="M5.6,59.3h1.6L12.7,72h-2l-1.3-3.2H3.3L2,72H0L5.6,59.3z M8.7,67.3l-2.4-5.8h0l-2.4,5.8H8.7z M19.7,69.3
	c0.3,0.5,0.7,0.8,1.2,1c0.5,0.2,1,0.3,1.5,0.3c0.3,0,0.6,0,0.9-0.1c0.3-0.1,0.6-0.2,0.8-0.4c0.3-0.2,0.5-0.4,0.6-0.7
	s0.2-0.6,0.2-0.9c0-0.5-0.2-0.9-0.5-1.1c-0.3-0.3-0.7-0.5-1.2-0.6c-0.5-0.2-1-0.3-1.5-0.5c-0.5-0.2-1-0.4-1.5-0.7
	c-0.5-0.3-0.8-0.7-1.2-1.2c-0.3-0.5-0.5-1.2-0.5-2c0-0.4,0.1-0.8,0.2-1.2c0.2-0.4,0.4-0.8,0.8-1.2c0.3-0.3,0.8-0.6,1.3-0.9
	c0.6-0.2,1.2-0.4,2-0.4c0.7,0,1.4,0.1,2,0.3c0.6,0.2,1.2,0.6,1.7,1.2l-1.4,1.3c-0.2-0.3-0.5-0.6-0.9-0.8c-0.4-0.2-0.8-0.3-1.4-0.3
	c-0.5,0-0.9,0.1-1.2,0.2c-0.3,0.1-0.6,0.3-0.8,0.5c-0.2,0.2-0.3,0.4-0.4,0.6c-0.1,0.2-0.1,0.4-0.1,0.6c0,0.5,0.2,1,0.5,1.2
	c0.3,0.3,0.7,0.5,1.2,0.7c0.5,0.2,1,0.3,1.5,0.5c0.6,0.1,1.1,0.3,1.5,0.6c0.5,0.3,0.9,0.6,1.2,1c0.3,0.4,0.5,1,0.5,1.8
	c0,0.6-0.1,1.2-0.4,1.7c-0.2,0.5-0.5,0.9-0.9,1.2s-0.9,0.6-1.4,0.8c-0.5,0.2-1.1,0.3-1.7,0.3c-0.8,0-1.6-0.1-2.3-0.4
	s-1.3-0.7-1.7-1.3L19.7,69.3z M33.5,64.9h-2.3v3.9c0,0.2,0,0.5,0,0.7c0,0.2,0.1,0.4,0.1,0.6c0.1,0.2,0.2,0.3,0.4,0.4
	c0.2,0.1,0.4,0.2,0.7,0.2c0.2,0,0.4,0,0.6-0.1c0.2,0,0.4-0.1,0.6-0.2v1.5c-0.2,0.1-0.4,0.2-0.8,0.2c-0.3,0-0.5,0.1-0.7,0.1
	c-0.6,0-1.1-0.1-1.5-0.3c-0.3-0.2-0.6-0.4-0.8-0.7c-0.2-0.3-0.3-0.6-0.3-0.9c0-0.3,0-0.7,0-1v-4.4h-1.9v-1.4h1.9v-2.4h1.6v2.4h2.3
	V64.9z M43.1,72h-1.6v-1.3h0c-0.2,0.5-0.6,0.8-1.1,1.1c-0.5,0.3-1.1,0.4-1.7,0.4c-0.4,0-0.8-0.1-1.2-0.2c-0.4-0.1-0.7-0.3-1-0.6
	c-0.3-0.3-0.5-0.6-0.7-1c-0.2-0.4-0.3-0.9-0.3-1.5v-5.5h1.6v5c0,0.4,0.1,0.7,0.2,1c0.1,0.3,0.3,0.5,0.4,0.7c0.2,0.2,0.4,0.3,0.6,0.4
	c0.2,0.1,0.5,0.1,0.7,0.1c0.3,0,0.6-0.1,0.9-0.2c0.3-0.1,0.5-0.3,0.8-0.5c0.2-0.2,0.4-0.5,0.5-0.9s0.2-0.8,0.2-1.3v-4.4h1.6V72z
	 M54.1,72h-1.6v-1.2h0c-0.3,0.5-0.7,0.8-1.3,1.1c-0.5,0.3-1.1,0.4-1.7,0.4c-0.7,0-1.3-0.1-1.8-0.3c-0.5-0.2-1-0.5-1.4-1
	c-0.4-0.4-0.7-0.9-0.9-1.4c-0.2-0.5-0.3-1.1-0.3-1.8s0.1-1.2,0.3-1.8c0.2-0.6,0.5-1,0.9-1.4c0.4-0.4,0.8-0.7,1.4-1
	c0.5-0.2,1.1-0.3,1.8-0.3c0.6,0,1.2,0.1,1.7,0.4c0.5,0.3,1,0.6,1.2,1h0v-6.3h1.6V72z M49.7,70.7c0.4,0,0.8-0.1,1.2-0.2
	c0.3-0.2,0.6-0.4,0.9-0.6c0.2-0.3,0.4-0.6,0.6-0.9c0.1-0.4,0.2-0.8,0.2-1.2s-0.1-0.8-0.2-1.2c-0.1-0.4-0.3-0.7-0.6-0.9
	c-0.2-0.3-0.5-0.5-0.9-0.6c-0.3-0.2-0.7-0.2-1.2-0.2c-0.4,0-0.8,0.1-1.2,0.2c-0.3,0.1-0.6,0.3-0.9,0.6c-0.2,0.3-0.4,0.6-0.6,0.9
	c-0.1,0.4-0.2,0.8-0.2,1.2s0.1,0.8,0.2,1.2c0.1,0.4,0.3,0.7,0.6,0.9c0.2,0.3,0.5,0.5,0.9,0.6C48.9,70.6,49.3,70.7,49.7,70.7z
	 M56.7,63.5h1.6V72h-1.6V63.5z M56.3,60.4c0-0.3,0.1-0.6,0.3-0.8c0.2-0.2,0.5-0.4,0.8-0.4s0.6,0.1,0.8,0.4c0.2,0.2,0.4,0.5,0.4,0.8
	c0,0.3-0.1,0.6-0.4,0.8c-0.2,0.2-0.5,0.3-0.8,0.3s-0.6-0.1-0.8-0.3C56.4,61,56.3,60.7,56.3,60.4z M62.2,67.7c0,0.4,0.1,0.8,0.2,1.2
	c0.1,0.4,0.3,0.7,0.6,0.9c0.2,0.3,0.5,0.5,0.9,0.6c0.3,0.1,0.7,0.2,1.2,0.2c0.4,0,0.8-0.1,1.2-0.2c0.3-0.2,0.6-0.4,0.9-0.6
	c0.2-0.3,0.4-0.6,0.6-0.9c0.1-0.4,0.2-0.8,0.2-1.2s-0.1-0.8-0.2-1.2c-0.1-0.4-0.3-0.7-0.6-0.9c-0.2-0.3-0.5-0.5-0.9-0.6
	c-0.3-0.2-0.7-0.2-1.2-0.2c-0.4,0-0.8,0.1-1.2,0.2c-0.3,0.1-0.6,0.3-0.9,0.6c-0.2,0.3-0.4,0.6-0.6,0.9
	C62.3,66.9,62.2,67.3,62.2,67.7z M60.5,67.7c0-0.6,0.1-1.2,0.3-1.7c0.2-0.5,0.6-1,1-1.4c0.4-0.4,0.9-0.7,1.4-1
	c0.6-0.2,1.1-0.4,1.8-0.4c0.6,0,1.2,0.1,1.8,0.4c0.6,0.2,1,0.5,1.4,1c0.4,0.4,0.7,0.9,1,1.4c0.2,0.5,0.4,1.1,0.4,1.7
	s-0.1,1.2-0.4,1.8c-0.2,0.5-0.5,1-1,1.4c-0.4,0.4-0.9,0.7-1.4,1c-0.6,0.2-1.1,0.3-1.8,0.3c-0.6,0-1.2-0.1-1.8-0.3
	c-0.6-0.2-1-0.6-1.4-1c-0.4-0.4-0.7-0.9-1-1.4C60.6,68.9,60.5,68.4,60.5,67.7z M85.9,62c-0.4-0.5-0.8-0.8-1.4-1.1
	c-0.6-0.3-1.1-0.4-1.7-0.4c-0.7,0-1.4,0.1-2,0.4c-0.6,0.3-1.1,0.6-1.5,1.1c-0.4,0.5-0.7,1-1,1.7c-0.2,0.6-0.3,1.3-0.3,2
	c0,0.7,0.1,1.3,0.3,1.9c0.2,0.6,0.5,1.1,0.9,1.6c0.4,0.5,0.9,0.8,1.5,1.1c0.6,0.3,1.3,0.4,2,0.4c0.7,0,1.4-0.2,1.9-0.5
	c0.6-0.3,1-0.7,1.4-1.3l1.5,1.1c-0.1,0.1-0.3,0.3-0.5,0.6c-0.2,0.2-0.6,0.5-1,0.7c-0.4,0.2-0.9,0.5-1.4,0.6
	c-0.6,0.2-1.2,0.3-1.9,0.3c-1,0-1.9-0.2-2.7-0.6c-0.8-0.4-1.5-0.9-2.1-1.5c-0.6-0.6-1-1.3-1.3-2.1c-0.3-0.8-0.4-1.6-0.4-2.4
	c0-1,0.2-1.9,0.5-2.7c0.3-0.8,0.8-1.6,1.3-2.2c0.6-0.6,1.3-1.1,2.1-1.4c0.8-0.3,1.7-0.5,2.7-0.5c0.8,0,1.7,0.2,2.5,0.5
	c0.8,0.3,1.5,0.8,2,1.5L85.9,62z M89.4,63.5H91V72h-1.6V63.5z M89,60.4c0-0.3,0.1-0.6,0.3-0.8c0.2-0.2,0.5-0.4,0.8-0.4
	s0.6,0.1,0.8,0.4c0.2,0.2,0.4,0.5,0.4,0.8c0,0.3-0.1,0.6-0.4,0.8c-0.2,0.2-0.5,0.3-0.8,0.3s-0.6-0.1-0.8-0.3
	C89.1,61,89,60.7,89,60.4z M98.2,64.9h-2.3v3.9c0,0.2,0,0.5,0,0.7c0,0.2,0.1,0.4,0.1,0.6c0.1,0.2,0.2,0.3,0.4,0.4
	c0.2,0.1,0.4,0.2,0.7,0.2c0.2,0,0.4,0,0.6-0.1c0.2,0,0.4-0.1,0.6-0.2v1.5c-0.2,0.1-0.4,0.2-0.8,0.2c-0.3,0-0.5,0.1-0.7,0.1
	c-0.6,0-1.1-0.1-1.5-0.3c-0.3-0.2-0.6-0.4-0.8-0.7c-0.2-0.3-0.3-0.6-0.3-0.9c0-0.3,0-0.7,0-1v-4.4h-1.9v-1.4h1.9v-2.4h1.6v2.4h2.3
	V64.9z M99.2,63.5h1.9l2.5,6.7h0l2.4-6.7h1.7l-4,10.4c-0.1,0.4-0.3,0.7-0.5,1c-0.2,0.3-0.3,0.6-0.6,0.8c-0.2,0.2-0.5,0.4-0.8,0.5
	c-0.3,0.1-0.7,0.2-1.1,0.2c-0.2,0-0.5,0-0.7-0.1c-0.2,0-0.5-0.1-0.7-0.2l0.2-1.5c0.3,0.1,0.6,0.2,1,0.2c0.3,0,0.5,0,0.6-0.1
	c0.2-0.1,0.3-0.2,0.4-0.3c0.1-0.1,0.2-0.3,0.3-0.4c0.1-0.2,0.2-0.4,0.3-0.6l0.5-1.3L99.2,63.5z M123.6,62c-0.4-0.5-0.8-0.8-1.4-1.1
	c-0.6-0.3-1.1-0.4-1.7-0.4c-0.7,0-1.4,0.1-2,0.4c-0.6,0.3-1.1,0.6-1.5,1.1c-0.4,0.5-0.7,1-1,1.7c-0.2,0.6-0.3,1.3-0.3,2
	c0,0.7,0.1,1.3,0.3,1.9c0.2,0.6,0.5,1.1,0.9,1.6c0.4,0.5,0.9,0.8,1.5,1.1c0.6,0.3,1.3,0.4,2,0.4c0.7,0,1.4-0.2,1.9-0.5
	c0.6-0.3,1-0.7,1.4-1.3l1.5,1.1c-0.1,0.1-0.3,0.3-0.5,0.6c-0.2,0.2-0.6,0.5-1,0.7c-0.4,0.2-0.9,0.5-1.4,0.6
	c-0.6,0.2-1.2,0.3-1.9,0.3c-1,0-1.9-0.2-2.7-0.6c-0.8-0.4-1.5-0.9-2.1-1.5c-0.6-0.6-1-1.3-1.3-2.1c-0.3-0.8-0.5-1.6-0.5-2.4
	c0-1,0.2-1.9,0.5-2.7c0.3-0.8,0.8-1.6,1.3-2.2c0.6-0.6,1.3-1.1,2.1-1.4c0.8-0.3,1.7-0.5,2.7-0.5c0.8,0,1.7,0.2,2.5,0.5
	c0.8,0.3,1.5,0.8,2,1.5L123.6,62z M128.3,67.7c0,0.4,0.1,0.8,0.2,1.2c0.1,0.4,0.3,0.7,0.6,0.9c0.2,0.3,0.5,0.5,0.9,0.6
	c0.3,0.1,0.7,0.2,1.2,0.2c0.4,0,0.8-0.1,1.2-0.2c0.3-0.2,0.6-0.4,0.9-0.6c0.2-0.3,0.4-0.6,0.6-0.9c0.1-0.4,0.2-0.8,0.2-1.2
	s-0.1-0.8-0.2-1.2c-0.1-0.4-0.3-0.7-0.6-0.9c-0.2-0.3-0.5-0.5-0.9-0.6c-0.3-0.2-0.7-0.2-1.2-0.2c-0.4,0-0.8,0.1-1.2,0.2
	c-0.3,0.1-0.6,0.3-0.9,0.6c-0.2,0.3-0.4,0.6-0.6,0.9C128.3,66.9,128.3,67.3,128.3,67.7z M126.5,67.7c0-0.6,0.1-1.2,0.3-1.7
	c0.2-0.5,0.6-1,1-1.4c0.4-0.4,0.9-0.7,1.4-1c0.6-0.2,1.1-0.4,1.8-0.4s1.2,0.1,1.8,0.4c0.6,0.2,1,0.5,1.4,1c0.4,0.4,0.7,0.9,1,1.4
	c0.2,0.5,0.4,1.1,0.4,1.7s-0.1,1.2-0.4,1.8c-0.2,0.5-0.5,1-1,1.4c-0.4,0.4-0.9,0.7-1.4,1c-0.6,0.2-1.1,0.3-1.8,0.3s-1.2-0.1-1.8-0.3
	c-0.6-0.2-1-0.6-1.4-1c-0.4-0.4-0.7-0.9-1-1.4C126.6,68.9,126.5,68.4,126.5,67.7z M137.6,63.5h1.5v1.3h0c0-0.1,0.1-0.3,0.3-0.5
	c0.2-0.2,0.3-0.3,0.6-0.5c0.2-0.2,0.5-0.3,0.8-0.4c0.3-0.1,0.7-0.2,1.1-0.2c0.6,0,1.2,0.1,1.6,0.4c0.4,0.3,0.8,0.7,1.1,1.2
	c0.3-0.5,0.7-0.9,1.2-1.2s1-0.4,1.5-0.4c0.7,0,1.2,0.1,1.6,0.3s0.8,0.5,1,0.9c0.2,0.3,0.4,0.8,0.5,1.2c0.1,0.4,0.1,0.9,0.1,1.4v5
	h-1.6v-4.8c0-0.3,0-0.6-0.1-0.9c0-0.3-0.1-0.6-0.3-0.8c-0.1-0.2-0.3-0.4-0.6-0.5c-0.2-0.1-0.6-0.2-1-0.2c-0.8,0-1.3,0.2-1.7,0.7
	c-0.3,0.5-0.5,1.1-0.5,1.9V72h-1.6v-4.5c0-0.4,0-0.8-0.1-1.1c0-0.3-0.1-0.6-0.3-0.9c-0.1-0.3-0.3-0.4-0.5-0.6
	c-0.2-0.1-0.5-0.2-0.9-0.2c-0.3,0-0.6,0.1-0.8,0.2c-0.3,0.1-0.5,0.3-0.7,0.5c-0.2,0.2-0.4,0.5-0.5,0.9c-0.1,0.3-0.2,0.8-0.2,1.2V72
	h-1.6V63.5z M153,63.5h1.6v1.2h0c0.3-0.5,0.7-0.8,1.3-1.1c0.6-0.3,1.1-0.4,1.7-0.4c0.7,0,1.3,0.1,1.8,0.3c0.5,0.2,1,0.5,1.4,1
	c0.4,0.4,0.7,0.9,0.9,1.4c0.2,0.5,0.3,1.1,0.3,1.7c0,0.6-0.1,1.2-0.3,1.8c-0.2,0.5-0.5,1-0.9,1.4c-0.4,0.4-0.8,0.7-1.4,0.9
	c-0.5,0.2-1.1,0.3-1.8,0.3c-0.6,0-1.2-0.1-1.7-0.4c-0.5-0.3-1-0.6-1.2-1.1h0v6.3H153V63.5z M157.4,64.8c-0.4,0-0.8,0.1-1.2,0.2
	c-0.3,0.1-0.6,0.3-0.9,0.6c-0.2,0.3-0.4,0.6-0.6,0.9c-0.1,0.4-0.2,0.8-0.2,1.2s0.1,0.8,0.2,1.2c0.1,0.4,0.3,0.7,0.6,0.9
	c0.2,0.3,0.5,0.5,0.9,0.6c0.3,0.1,0.7,0.2,1.2,0.2c0.4,0,0.8-0.1,1.2-0.2c0.3-0.2,0.6-0.4,0.9-0.6c0.2-0.3,0.4-0.6,0.6-0.9
	c0.1-0.4,0.2-0.8,0.2-1.2s-0.1-0.8-0.2-1.2c-0.1-0.4-0.3-0.7-0.6-0.9c-0.2-0.3-0.5-0.5-0.9-0.6C158.2,64.8,157.8,64.8,157.4,64.8z
	 M164,64.5c0.5-0.4,1-0.7,1.6-0.9c0.6-0.2,1.2-0.3,1.8-0.3c0.6,0,1.2,0.1,1.6,0.2c0.5,0.2,0.8,0.4,1.1,0.6c0.3,0.3,0.5,0.6,0.6,0.9
	c0.1,0.3,0.2,0.7,0.2,1.1v4.4c0,0.3,0,0.6,0,0.8c0,0.3,0,0.5,0.1,0.7h-1.4c0-0.4-0.1-0.9-0.1-1.3h0c-0.4,0.6-0.8,0.9-1.3,1.2
	c-0.5,0.2-1.1,0.3-1.7,0.3c-0.4,0-0.8-0.1-1.1-0.2s-0.7-0.3-1-0.5c-0.3-0.2-0.5-0.5-0.6-0.8c-0.2-0.3-0.2-0.7-0.2-1.1
	c0-0.6,0.1-1,0.4-1.4c0.3-0.4,0.6-0.7,1-0.9c0.4-0.2,0.9-0.4,1.5-0.5c0.6-0.1,1.2-0.2,1.8-0.2h1.2v-0.4c0-0.2,0-0.4-0.1-0.6
	c-0.1-0.2-0.2-0.4-0.4-0.6c-0.2-0.2-0.4-0.3-0.6-0.4c-0.3-0.1-0.6-0.2-0.9-0.2c-0.3,0-0.6,0-0.8,0.1c-0.2,0.1-0.4,0.1-0.6,0.2
	c-0.2,0.1-0.4,0.2-0.5,0.3c-0.2,0.1-0.3,0.2-0.4,0.3L164,64.5z M168.6,67.9c-0.4,0-0.8,0-1.2,0.1c-0.4,0-0.8,0.1-1.1,0.2
	c-0.3,0.1-0.6,0.3-0.8,0.5c-0.2,0.2-0.3,0.5-0.3,0.8c0,0.5,0.2,0.8,0.5,1.1c0.3,0.2,0.8,0.3,1.3,0.3c0.4,0,0.8-0.1,1.1-0.2
	c0.3-0.2,0.6-0.4,0.8-0.6s0.3-0.5,0.4-0.8c0.1-0.3,0.1-0.6,0.1-0.9v-0.5H168.6z M173.3,63.5h1.6v1.3h0c0.2-0.5,0.6-0.8,1.1-1.1
	c0.5-0.3,1.1-0.4,1.7-0.4c0.4,0,0.8,0.1,1.2,0.2c0.4,0.1,0.7,0.3,1,0.6c0.3,0.3,0.5,0.6,0.7,1c0.2,0.4,0.3,0.9,0.3,1.5V72h-1.6v-5
	c0-0.4-0.1-0.7-0.2-1c-0.1-0.3-0.3-0.5-0.4-0.7c-0.2-0.2-0.4-0.3-0.6-0.4c-0.2-0.1-0.5-0.1-0.7-0.1c-0.3,0-0.6,0.1-0.9,0.2
	c-0.3,0.1-0.5,0.3-0.8,0.5c-0.2,0.2-0.4,0.5-0.5,0.9c-0.1,0.4-0.2,0.8-0.2,1.3V72h-1.6V63.5z M182.3,63.5h1.9l2.5,6.7h0l2.4-6.7h1.7
	l-4.1,10.4c-0.1,0.4-0.3,0.7-0.4,1c-0.2,0.3-0.3,0.6-0.6,0.8c-0.2,0.2-0.5,0.4-0.8,0.5c-0.3,0.1-0.7,0.2-1.1,0.2
	c-0.2,0-0.5,0-0.7-0.1c-0.2,0-0.5-0.1-0.7-0.2l0.2-1.5c0.3,0.1,0.6,0.2,1,0.2c0.3,0,0.5,0,0.6-0.1c0.2-0.1,0.3-0.2,0.4-0.3
	c0.1-0.1,0.2-0.3,0.3-0.4c0.1-0.2,0.2-0.4,0.3-0.6l0.5-1.3L182.3,63.5z"></path>
<g>
	<defs>
		<rect id="SVGID_1_" width="191" height="49"></rect>
	</defs>
	<clipPath id="SVGID_00000172424443707100184140000011935475728087297205_">
		<use xlink:href="#SVGID_1_" style="overflow:visible;"></use>
	</clipPath>
	<g style="clip-path:url(#SVGID_00000172424443707100184140000011935475728087297205_);">
		<path class="is-white" d="M189.8,42H156V1.2c0-0.6-0.5-1.2-1.2-1.2H150c-0.6,0-1.2,0.5-1.2,1.2v46.7c0,0.6,0.5,1.2,1.2,1.2h39.8
			c0.6,0,1.2-0.5,1.2-1.2v-4.7C191,42.5,190.5,42,189.8,42z"></path>
		<path class="is-white" d="M38.1,4.3C35.3,1.5,31.3,0,27,0H1.7C0.8,0,0,0.8,0,1.7v45.6C0,48.2,0.8,49,1.7,49h3.9c0.9,0,1.7-0.8,1.7-1.7
			V31.5h19.1c4.4,0,8.5-1.7,11.6-4.8c3-3.1,4.7-7.1,4.7-11.4C42.6,11,41,7.1,38.1,4.3z M32.7,21.8c-1.5,1.6-3.5,2.4-5.6,2.4H7.2V7.3
			H27c2.2,0,4.3,0.8,5.8,2.4c1.6,1.5,2.4,3.6,2.4,5.8C35.3,17.8,34.4,20.1,32.7,21.8z"></path>
		<path class="is-white" d="M88.6,24.5L69.8,43.4c-0.7,0.6-0.7,1.7,0,2.4l2.7,2.7c0.3,0.3,0.7,0.5,1.2,0.5c0.4,0,0.9-0.2,1.2-0.5
			l18.9-18.9L88.6,24.5z"></path>
		<path class="is-white" d="M74.8,0.6c-0.3-0.3-0.7-0.5-1.2-0.5c-0.4,0-0.9,0.2-1.2,0.5l-2.7,2.7c-0.7,0.6-0.7,1.7,0,2.4l18.9,18.9
			l5.1-5.1L74.8,0.6z"></path>
		<path class="is-white" d="M117.6,43.4L98.8,24.5l-5.1,5.1l18.9,18.9c0.3,0.3,0.8,0.5,1.2,0.5s0.9-0.2,1.2-0.5l2.7-2.7
			c0.3-0.3,0.5-0.7,0.5-1.2C118.1,44.1,118,43.7,117.6,43.4z"></path>
		<path class="is-white" d="M117.6,3.3l-2.7-2.7c-0.7-0.7-1.7-0.7-2.4,0L93.7,19.5l5.1,5.1l18.9-18.9C118.3,5,118.3,3.9,117.6,3.3z"></path>
	</g>
</g>
</svg>